<svg width="13" height="13" viewBox="0 0 13 13" fill="none" xmlns="http://www.w3.org/2000/svg">
<path fill-rule="evenodd" clip-rule="evenodd" d="M6.4006 0C4.66245 0 4.44431 0.00760008 3.76164 0.0386671C3.0803 0.0698674 2.61523 0.177735 2.20829 0.336003C1.78735 0.499472 1.43028 0.718141 1.07454 1.07401C0.718541 1.42975 0.499872 1.78682 0.33587 2.20762C0.177202 2.61469 0.0692007 3.0799 0.0385337 3.76097C0.00800009 4.44365 0 4.66191 0 6.40007C0 8.13822 0.00773341 8.35569 0.0386671 9.03836C0.0700007 9.7197 0.177869 10.1848 0.336004 10.5917C0.499605 11.0126 0.718274 11.3697 1.07414 11.7255C1.42975 12.0815 1.78682 12.3007 2.20749 12.4641C2.61469 12.6224 3.0799 12.7303 3.76111 12.7615C4.44378 12.7925 4.66178 12.8001 6.3998 12.8001C8.13809 12.8001 8.35555 12.7925 9.03823 12.7615C9.71957 12.7303 10.1852 12.6224 10.5924 12.4641C11.0132 12.3007 11.3697 12.0815 11.7253 11.7255C12.0813 11.3697 12.3 11.0126 12.464 10.5918C12.6213 10.1848 12.7293 9.71957 12.7613 9.03849C12.792 8.35582 12.8 8.13822 12.8 6.40007C12.8 4.66191 12.792 4.44378 12.7613 3.76111C12.7293 3.07977 12.6213 2.61469 12.464 2.20776C12.3 1.78682 12.0813 1.42975 11.7253 1.07401C11.3693 0.718008 11.0133 0.499339 10.592 0.336003C10.184 0.177735 9.71863 0.0698674 9.03729 0.0386671C8.35462 0.00760008 8.13729 0 6.3986 0H6.4006ZM5.82643 1.15333C5.99683 1.15306 6.18697 1.15333 6.40057 1.15333C8.10939 1.15333 8.31193 1.15946 8.98673 1.19013C9.61074 1.21866 9.94941 1.32293 10.175 1.41053C10.4737 1.52653 10.6866 1.6652 10.9105 1.8892C11.1345 2.1132 11.2732 2.32654 11.3894 2.62521C11.477 2.85055 11.5814 3.18922 11.6098 3.81322C11.6405 4.4879 11.6472 4.69057 11.6472 6.39858C11.6472 8.1066 11.6405 8.30927 11.6098 8.98394C11.5813 9.60795 11.477 9.94662 11.3894 10.172C11.2734 10.4706 11.1345 10.6833 10.9105 10.9072C10.6865 11.1312 10.4738 11.2698 10.175 11.3858C9.94968 11.4738 9.61074 11.5778 8.98673 11.6064C8.31206 11.637 8.10939 11.6437 6.40057 11.6437C4.69162 11.6437 4.48909 11.637 3.81441 11.6064C3.19041 11.5776 2.85174 11.4733 2.626 11.3857C2.32733 11.2697 2.11399 11.131 1.88999 10.907C1.66599 10.683 1.52732 10.4702 1.41105 10.1714C1.32345 9.94609 1.21905 9.60742 1.19065 8.98341C1.15998 8.30874 1.15385 8.10607 1.15385 6.39698C1.15385 4.6879 1.15998 4.4863 1.19065 3.81162C1.21919 3.18762 1.32345 2.84895 1.41105 2.62334C1.52706 2.32467 1.66599 2.11134 1.88999 1.88733C2.11399 1.66333 2.32733 1.52466 2.626 1.4084C2.8516 1.3204 3.19041 1.21639 3.81441 1.18773C4.40482 1.16106 4.63362 1.15306 5.82643 1.15173V1.15333ZM9.81688 2.21601C9.39287 2.21601 9.04887 2.55961 9.04887 2.98375C9.04887 3.40775 9.39287 3.75176 9.81688 3.75176C10.2409 3.75176 10.5849 3.40775 10.5849 2.98375C10.5849 2.55974 10.2409 2.21601 9.81688 2.21601ZM6.40061 3.11335C4.58553 3.11335 3.11391 4.58496 3.11391 6.40005C3.11391 8.21513 4.58553 9.68608 6.40061 9.68608C8.2157 9.68608 9.68678 8.21513 9.68678 6.40005C9.68678 4.58496 8.2157 3.11335 6.40061 3.11335ZM6.40059 4.26669C7.57873 4.26669 8.53394 5.22177 8.53394 6.40005C8.53394 7.57819 7.57873 8.5334 6.40059 8.5334C5.22231 8.5334 4.26723 7.57819 4.26723 6.40005C4.26723 5.22177 5.22231 4.26669 6.40059 4.26669Z" fill="white"/>
</svg>
