<svg width="13" height="10" viewBox="0 0 13 10" fill="none" xmlns="http://www.w3.org/2000/svg">
<path fill-rule="evenodd" clip-rule="evenodd" d="M11.4008 0.274665C11.9516 0.425797 12.3853 0.871106 12.5325 1.43661C12.8 2.46152 12.8 4.6 12.8 4.6C12.8 4.6 12.8 6.73841 12.5325 7.76339C12.3853 8.32889 11.9516 8.7742 11.4008 8.92541C10.4027 9.2 6.4 9.2 6.4 9.2C6.4 9.2 2.39731 9.2 1.39913 8.92541C0.848364 8.7742 0.414618 8.32889 0.267418 7.76339C0 6.73841 0 4.6 0 4.6C0 4.6 0 2.46152 0.267418 1.43661C0.414618 0.871106 0.848364 0.425797 1.39913 0.274665C2.39731 0 6.4 0 6.4 0C6.4 0 10.4027 0 11.4008 0.274665ZM5.20001 2.79996V6.79996L8.40001 4.80003L5.20001 2.79996Z" fill="white"/>
</svg>
