<svg width="12" height="10" viewBox="0 0 12 10" fill="none" xmlns="http://www.w3.org/2000/svg">
<path fill-rule="evenodd" clip-rule="evenodd" d="M5.6406 2.55375L5.66578 2.96898L5.2461 2.91813C3.71843 2.72323 2.38383 2.06226 1.25067 0.95216L0.696681 0.401349L0.553988 0.808102C0.251813 1.71482 0.444869 2.67239 1.0744 3.31641C1.41015 3.67232 1.33461 3.72317 0.755438 3.51131C0.553988 3.44352 0.377719 3.39268 0.360931 3.4181C0.302175 3.47742 0.503625 4.24855 0.663106 4.55362C0.881344 4.97732 1.32621 5.39255 1.81305 5.63829L2.22434 5.8332L1.73751 5.84167C1.26746 5.84167 1.25067 5.85014 1.30103 6.0281C1.46891 6.57891 2.13201 7.16362 2.87066 7.41784L3.39108 7.59579L2.93781 7.86696C2.26631 8.25677 1.4773 8.47709 0.688288 8.49404C0.310569 8.50251 0 8.53641 0 8.56183C0 8.64657 1.02404 9.12112 1.61999 9.30755C3.40786 9.85836 5.53148 9.62108 7.1263 8.68047C8.25945 8.01102 9.39261 6.6806 9.92142 5.39255C10.2068 4.70615 10.4922 3.452 10.4922 2.85034C10.4922 2.46054 10.5174 2.40969 10.9874 1.94362C11.2644 1.67245 11.5246 1.37586 11.575 1.29112C11.6589 1.13011 11.6505 1.13011 11.2224 1.27417C10.509 1.52839 10.4083 1.4945 10.7608 1.11317C11.021 0.841998 11.3316 0.350505 11.3316 0.206446C11.3316 0.181024 11.2057 0.223394 11.063 0.299661C10.9119 0.384401 10.5761 0.511511 10.3243 0.587777L9.87105 0.731836L9.45976 0.452193C9.23313 0.29966 8.91417 0.13018 8.74629 0.0793359C8.31821 -0.0393004 7.6635 -0.0223524 7.27738 0.113232C6.22816 0.494563 5.56506 1.47755 5.6406 2.55375Z" fill="white"/>
</svg>
